<svg xmlns="http://www.w3.org/2000/svg" version="1.1" xmlns:xlink="http://www.w3.org/1999/xlink" xmlns:svgjs="http://svgjs.com/svgjs" width="24" height="24"><svg id="SvgjsSvg1000" xmlns="http://www.w3.org/2000/svg" viewBox="0 0 24 24">
  <defs>
    <style>
      .cls-1 {
        fill: #c701ff;
      }

      .cls-2 {
        fill: #ff00a6;
      }

      .cls-3 {
        fill: #01a8ff;
      }

      .cls-4 {
        opacity: .5;
      }

      .cls-5 {
        fill: #0065ff;
      }

      .cls-6 {
        fill: #ff006b;
      }

      .cls-7 {
        fill: #02ffcb;
      }

      .cls-8 {
        fill: #ff9600;
      }

      .cls-9 {
        fill: #ff00ea;
      }

      .cls-10 {
        fill: #e5ff00;
      }

      .cls-11 {
        fill: #ff6b00;
      }

      .cls-12 {
        fill: #ffe001;
      }

      .cls-13 {
        fill: #87ff00;
      }

      .cls-14 {
        fill: #12004b;
      }

      .cls-15 {
        fill: #ffb900;
      }

      .cls-16 {
        fill: #ff001d;
      }

      .cls-17 {
        fill: #5200ff;
      }

      .cls-18 {
        fill: #8901ff;
      }

      .cls-19 {
        fill: #00cbff;
      }

      .cls-20 {
        fill: #00ff8a;
      }

      .cls-21 {
        fill: #01e9ff;
      }

      .cls-22 {
        fill: #00fff4;
      }
    </style>
  </defs>
  <circle class="cls-14" cx="12" cy="12" r="10"></circle>
  <g class="cls-4">
    <path class="cls-6" d="M10.75,4.1c-.85,.13-1.64,.4-2.38,.78l-.91-1.79c.92-.47,1.91-.8,2.97-.96l.32,1.97Z"></path>
    <path class="cls-2" d="M8.37,4.88c-.75,.38-1.43,.88-2.02,1.47l-1.42-1.42c.74-.74,1.59-1.36,2.53-1.84l.91,1.79Z"></path>
    <path class="cls-9" d="M6.35,6.35c-.59,.59-1.09,1.27-1.47,2.02l-1.79-.91c.48-.94,1.1-1.79,1.84-2.53l1.42,1.42Z"></path>
    <path class="cls-1" d="M4.88,8.37c-.38,.74-.65,1.53-.78,2.38l-1.97-.32c.16-1.06,.49-2.05,.96-2.97l1.79,.91Z"></path>
    <path class="cls-18" d="M4,12c0,.43,.03,.84,.1,1.25l-1.97,.32c-.09-.51-.13-1.03-.13-1.57s.04-1.06,.13-1.57l1.97,.32c-.0699,.41-.1,.82-.1,1.25Z"></path>
    <path class="cls-17" d="M4.88,15.63l-1.79,.91c-.47-.92-.8-1.91-.96-2.97l1.97-.32c.13,.85,.4,1.64,.78,2.38Z"></path>
    <path class="cls-5" d="M6.35,17.65l-1.42,1.42c-.74-.7401-1.36-1.59-1.84-2.53l1.79-.91c.38,.75,.88,1.43,1.47,2.02Z"></path>
    <path class="cls-3" d="M8.37,19.12l-.91,1.79c-.94-.48-1.79-1.1-2.53-1.84l1.42-1.42c.59,.59,1.27,1.09,2.02,1.47Z"></path>
    <path class="cls-19" d="M10.75,19.9l-.32,1.97c-1.06-.16-2.05-.49-2.97-.96l.91-1.79c.74,.38,1.53,.65,2.38,.78Z"></path>
    <path class="cls-21" d="M13.57,21.87c-.51,.09-1.03,.13-1.57,.13s-1.06-.04-1.57-.13l.32-1.97c.41,.07,.82,.1,1.25,.1s.84-.03,1.25-.1l.32,1.97Z"></path>
    <path class="cls-22" d="M16.54,20.91c-.92,.47-1.91,.8-2.97,.96l-.32-1.97c.85-.13,1.64-.4,2.38-.78l.91,1.79Z"></path>
    <path class="cls-7" d="M19.07,19.07c-.74,.74-1.59,1.36-2.53,1.84l-.91-1.79c.75-.38,1.43-.88,2.02-1.47l1.42,1.42Z"></path>
    <path class="cls-20" d="M20.91,16.54c-.48,.94-1.1,1.79-1.84,2.53l-1.42-1.42c.59-.59,1.09-1.27,1.47-2.02l1.79,.91Z"></path>
    <path class="cls-13" d="M21.87,13.57c-.16,1.06-.49,2.05-.96,2.97l-1.79-.91c.38-.74,.65-1.53,.78-2.38l1.97,.32Z"></path>
    <path class="cls-10" d="M22,12c0,.54-.04,1.06-.13,1.57l-1.97-.32c.0699-.41,.1-.82,.1-1.25s-.03-.84-.1-1.25l1.97-.32c.09,.51,.13,1.03,.13,1.57Z"></path>
    <path class="cls-12" d="M21.87,10.43l-1.97,.32c-.13-.85-.4-1.64-.78-2.38l1.79-.91c.47,.92,.8,1.91,.96,2.97Z"></path>
    <path class="cls-15" d="M20.91,7.46l-1.79,.91c-.38-.75-.88-1.43-1.47-2.02l1.42-1.42c.74,.74,1.36,1.59,1.84,2.53Z"></path>
    <path class="cls-8" d="M19.07,4.93l-1.42,1.42c-.59-.59-1.27-1.09-2.02-1.47l.91-1.79c.94,.48,1.79,1.1,2.53,1.84Z"></path>
    <path class="cls-11" d="M16.54,3.09l-.91,1.79c-.74-.38-1.53-.65-2.38-.78l.32-1.97c1.06,.16,2.05,.49,2.97,.96Z"></path>
    <path class="cls-16" d="M13.57,2.13l-.32,1.97c-.41-.07-.82-.1-1.25-.1s-.84,.03-1.25,.1l-.32-1.97c.51-.09,1.03-.13,1.57-.13s1.06,.04,1.57,.13Z"></path>
  </g>
  <g>
    <circle class="cls-2" cx="7.8855" cy="6.3369" r="2"></circle>
    <circle class="cls-1" cx="5.3426" cy="9.8369" r="2"></circle>
    <circle class="cls-17" cx="5.3426" cy="14.1631" r="2"></circle>
    <circle class="cls-3" cx="7.8855" cy="17.6631" r="2"></circle>
    <circle class="cls-21" cx="12" cy="19" r="2"></circle>
    <circle class="cls-7" cx="16.1145" cy="17.6631" r="2"></circle>
    <circle class="cls-13" cx="18.6574" cy="14.1631" r="2"></circle>
    <circle class="cls-12" cx="18.6574" cy="9.8369" r="2"></circle>
    <circle class="cls-8" cx="16.1145" cy="6.3369" r="2"></circle>
    <circle class="cls-16" cx="12" cy="5" r="2"></circle>
  </g>
</svg><style>@media (prefers-color-scheme: light) { :root { filter: none; } }
@media (prefers-color-scheme: dark) { :root { filter: none; } }
</style></svg>