<?xml version="1.0" encoding="utf-8"?>
<!-- Generator: Adobe Illustrator 27.0.0, SVG Export Plug-In . SVG Version: 6.00 Build 0)  -->
<svg version="1.1" id="favicon" xmlns="http://www.w3.org/2000/svg" xmlns:xlink="http://www.w3.org/1999/xlink" x="0px" y="0px"
	 viewBox="0 0 72 72" style="enable-background:new 0 0 72 72;" xml:space="preserve">
<style type="text/css">
	.st0{fill:#130123;}
	.st1{fill:#27B0ED;}
	.st2{fill:#3237EF;}
	.st3{fill:#A033EE;}
	.st4{fill:#EE31BA;}
	.st5{fill:#EE2F51;}
	.st6{fill:#ED7F23;}
	.st7{clip-path:url(#SVGID_00000097492921356533117880000005579315173575219339_);}
	.st8{fill:#EDBF25;}
	.st9{fill:#B3ED2B;}
	.st10{fill:#2DEDA7;}
	.st11{fill:#28E8ED;}
</style>
<g>
	<circle class="st0" cx="36" cy="36" r="25.5"/>
	<path class="st0" d="M36,10v1c13.8,0,25,11.2,25,25c0,6.7-2.6,13-7.3,17.7S42.7,61,36,61c-13.8,0-25-11.2-25-25
		c0-6.7,2.6-13,7.3-17.7S29.3,11,36,11V10 M36,10C36,10,36,10,36,10c-14.4,0-26,11.6-26,26c0,14.4,11.6,26,26,26c0,0,0,0,0,0
		c14.4,0,26-11.6,26-26C62,21.6,50.4,10,36,10L36,10z"/>
</g>
<g>
	<path class="st1" d="M32.8,61.3c-11.2-1.4-20.2-9.9-22-21.3c-2.1-13.5,7.1-26.6,20.5-29c0.2,0,0.4-0.1,0.6-0.1
		c0.2,0,0.4-0.1,0.6-0.1c0.4,0,0.9-0.1,1.3-0.1c6.2,0,11.4,4.4,12.3,10.5c0.5,3.3-0.3,6.6-2.2,9.3c-2,2.7-4.9,4.5-8.2,5
		c-7.4,1.2-12.4,8.1-11.2,15.4C25.5,55.7,28.6,59.6,32.8,61.3L32.8,61.3z"/>
	<path class="st0" d="M34,10.2v1c5.9,0,10.9,4.3,11.8,10.1c1,6.5-3.4,12.7-10,13.7c-7.6,1.2-12.8,8.4-11.6,16
		c0.6,3.9,2.7,7.1,5.7,9.2c-9.6-2.4-17-10.2-18.6-20.4c-1-6.5,0.5-13,4.3-18.4c3.8-5.3,9.4-8.9,15.9-10.1c0.2,0,0.4-0.1,0.6-0.1
		c0.2,0,0.4-0.1,0.6-0.1c0.4,0,0.9-0.1,1.3-0.1L34,10.2 M34,10.2c-0.5,0-0.9,0-1.4,0.1c-0.2,0-0.4,0.1-0.7,0.1
		c-0.2,0-0.4,0.1-0.7,0.1C17.5,13,8.1,26.1,10.3,40.1C12.4,52.9,23.4,62,35.9,62c1.1,0,2.3-0.1,3.5-0.2c-0.5,0-0.9,0.1-1.4,0.1
		c-6.3,0-11.8-4.6-12.8-11C24.1,43.8,28.9,37.1,36,36c7.1-1.1,11.9-7.8,10.8-14.9C45.8,14.7,40.3,10.2,34,10.2L34,10.2L34,10.2z
		 M39.4,61.8L39.4,61.8z"/>
</g>
<g>
	<path class="st2" d="M18.5,54.6c-8-7.6-10.5-19.9-5.3-30.1c4.4-8.6,13.1-13.9,22.7-13.9c3.8,0,7.5,0.8,11,2.5
		c0.2,0.1,0.4,0.2,0.6,0.3c0.2,0.1,0.4,0.2,0.6,0.3c5.8,3.3,7.9,10.6,4.9,16.5c-2.1,4.2-6.4,6.8-11.1,6.8c-2,0-3.9-0.5-5.7-1.4
		c-1.9-1-4-1.5-6.1-1.5c-5.1,0-9.7,2.8-12,7.4C15.9,45.8,16.2,50.7,18.5,54.6L18.5,54.6z"/>
	<path class="st0" d="M36,10v1h0c3.7,0,7.4,0.8,10.8,2.5c0.2,0.1,0.4,0.2,0.6,0.3s0.4,0.2,0.5,0.3c5.5,3.2,7.6,10.1,4.7,15.8
		c-2.1,4-6.2,6.6-10.7,6.6c-1.9,0-3.7-0.4-5.4-1.3c-2-1-4.1-1.5-6.3-1.5c-5.3,0-10.1,2.9-12.5,7.6c-1.8,3.5-2,7.4-0.8,10.8
		c-2.1-2.5-3.7-5.4-4.7-8.6c-2-6.3-1.4-12.9,1.6-18.8C18,16.2,26.6,11,36,11L36,10 M36,10c-9.5,0-18.6,5.2-23.2,14.2
		c-6.4,12.6-1.6,28,10.8,34.6c-6-3.4-8.3-11-5.1-17.2c2.3-4.5,6.9-7.1,11.6-7.1c2,0,4,0.5,5.9,1.4c1.9,1,3.9,1.4,5.9,1.4
		c4.7,0,9.3-2.6,11.6-7.1c3.2-6.2,0.9-13.7-5.1-17.2c-0.2-0.1-0.4-0.2-0.6-0.3s-0.4-0.2-0.6-0.3C43.6,10.8,39.8,10,36,10L36,10
		L36,10z"/>
</g>
<g>
	<path class="st3" d="M47.6,42.6c-4.7,0-9-2.6-11.1-6.8c-2.3-4.5-6.9-7.4-12-7.4c-2.1,0-4.2,0.5-6.1,1.5c-4.3,2.2-6.9,6.4-7.3,10.9
		c-2-10.8,3.2-22.3,13.5-27.5c3.6-1.8,7.5-2.8,11.6-2.8c9.4,0,18,5.1,22.4,13.3c0.1,0.2,0.2,0.4,0.3,0.6c0.1,0.2,0.2,0.4,0.3,0.6
		c2.7,6.1,0.2,13.2-5.7,16.2C51.5,42.1,49.6,42.6,47.6,42.6L47.6,42.6z"/>
	<path class="st0" d="M36,10v1h0c9.2,0,17.6,5,22,13.1c0.1,0.2,0.2,0.4,0.3,0.5c0.1,0.2,0.2,0.4,0.3,0.6c2.6,5.8,0.2,12.7-5.5,15.6
		c-1.7,0.9-3.5,1.3-5.4,1.3c-4.5,0-8.6-2.5-10.7-6.6c-2.4-4.7-7.2-7.6-12.5-7.6c-2.2,0-4.4,0.5-6.3,1.5c-3.5,1.8-5.9,4.8-7,8.3
		c-0.2-3.3,0.2-6.6,1.3-9.7c2.1-6.2,6.5-11.3,12.3-14.3C28.2,11.9,32,11,36,11L36,10 M36,10c-4,0-8,0.9-11.8,2.8
		C11.6,19.3,6.5,34.5,12.6,47.2c-2.8-6.3-0.2-13.7,6-16.9c1.9-1,3.9-1.4,5.9-1.4c4.7,0,9.3,2.6,11.6,7.1c2.3,4.5,6.9,7.1,11.6,7.1
		c2,0,4-0.5,5.9-1.4c6.2-3.2,8.8-10.6,6-16.9c-0.1-0.2-0.2-0.4-0.3-0.6c-0.1-0.2-0.2-0.4-0.3-0.6C54.2,15,45.2,10,36,10L36,10L36,10
		z"/>
</g>
<g>
	<path class="st4" d="M48.9,50.5c-0.7,0-1.3-0.1-2-0.2c-6.8-1.1-11.5-7.5-10.4-14.3c1.2-7.4-3.9-14.3-11.2-15.4
		c-0.7-0.1-1.4-0.2-2.1-0.2c-4,0-7.8,1.8-10.3,4.8c4.1-8.8,13-14.7,23.1-14.7c1.3,0,2.7,0.1,4,0.3C53.5,13,63.1,25.8,61.3,39.3
		c0,0.2-0.1,0.4-0.1,0.7c0,0.2-0.1,0.4-0.1,0.6C59.8,46.4,54.7,50.5,48.9,50.5L48.9,50.5z"/>
	<path class="st0" d="M36,10v1c1.3,0,2.6,0.1,3.9,0.3c6.5,1,12.2,4.5,16.1,9.8c3.9,5.3,5.6,11.7,4.7,18.2c0,0.2,0,0.4-0.1,0.6
		c0,0.2-0.1,0.4-0.1,0.6C59.4,46,54.5,50,48.9,50c-0.6,0-1.3-0.1-1.9-0.1c-3.2-0.5-5.9-2.2-7.8-4.8c-1.9-2.6-2.6-5.8-2.1-8.9
		c0.6-3.7-0.3-7.4-2.5-10.4c-2.2-3-5.4-5-9.1-5.6C24.6,20,23.9,20,23.1,20c-3.1,0-6,1-8.4,2.8C19.2,15.6,27.1,11,36,11L36,10 M36,10
		c-12.3,0-23.2,8.8-25.5,21.3C11.7,25.2,17.1,21,23.1,21c0.7,0,1.4,0.1,2.1,0.2C32.3,22.3,37.1,28.9,36,36
		c-1.1,7.1,3.7,13.7,10.8,14.9c0.7,0.1,1.4,0.2,2.1,0.2c6.1,0,11.4-4.3,12.7-10.3c0-0.2,0.1-0.4,0.1-0.7c0-0.2,0.1-0.4,0.1-0.7
		c1.9-13.9-7.7-26.9-21.7-29.1C38.7,10.1,37.3,10,36,10C36,10,36,10,36,10z"/>
</g>
<g>
	<path class="st5" d="M45.2,57.7c-3.3,0-6.5-1.3-8.8-3.7c-2.4-2.4-3.7-5.5-3.7-8.8s1.3-6.5,3.7-8.8c5.3-5.3,5.3-13.8,0-19.1
		c-2.5-2.5-5.9-4-9.5-4c-1.1,0-2.1,0.1-3.1,0.4c3.7-2.1,8-3.2,12.3-3.2c6.8,0,13.2,2.7,18,7.5c9.7,9.7,9.9,25.7,0.5,35.6
		c-0.2,0.2-0.3,0.3-0.5,0.5c-0.1,0.1-0.3,0.3-0.5,0.4C51.3,56.5,48.3,57.7,45.2,57.7L45.2,57.7z"/>
	<path class="st0" d="M36,11L36,11c6.7,0,12.9,2.6,17.7,7.3c4.6,4.6,7.2,10.8,7.3,17.4c0.1,6.6-2.4,12.8-6.9,17.5
		c-0.1,0.2-0.3,0.3-0.4,0.5s-0.3,0.3-0.5,0.4c-2.2,2-5.1,3.1-8,3.1c-3.2,0-6.2-1.2-8.5-3.5c-2.3-2.3-3.5-5.3-3.5-8.5
		s1.2-6.2,3.5-8.5c2.6-2.6,4.1-6.2,4.1-9.9c0-3.7-1.5-7.3-4.1-9.9c-2.6-2.6-6.2-4.1-9.9-4.1c-0.1,0-0.1,0-0.2,0
		C29.6,11.6,32.8,11,36,11 M36,10c-6.4,0-12.9,2.4-17.9,7.2c2.5-2.2,5.6-3.3,8.7-3.3c3.3,0,6.6,1.3,9.2,3.8c5.1,5.1,5.1,13.3,0,18.4
		s-5.1,13.3,0,18.4c2.5,2.5,5.9,3.8,9.2,3.8c3.1,0,6.2-1.1,8.7-3.3c0.2-0.1,0.3-0.3,0.5-0.5s0.3-0.3,0.5-0.5
		c9.7-10.2,9.5-26.3-0.5-36.3C49.3,12.5,42.7,10,36,10C36,10,36,10,36,10z"/>
</g>
<g>
	<path class="st6" d="M38,61.3c-6.2,0-11.4-4.4-12.3-10.5c-1.1-6.8,3.6-13.2,10.4-14.3c7.4-1.2,12.4-8.1,11.2-15.4
		c-0.8-4.8-3.9-8.6-8.1-10.4c11.2,1.4,20.2,9.9,22,21.3c2.1,13.5-7.1,26.6-20.5,29c-0.2,0-0.4,0.1-0.6,0.1c-0.2,0-0.4,0.1-0.6,0.1
		C38.9,61.3,38.5,61.3,38,61.3L38,61.3z"/>
	<path class="st0" d="M42.1,11.7c9.6,2.4,17,10.2,18.6,20.4c1,6.5-0.5,13-4.3,18.4c-3.8,5.3-9.4,8.9-15.9,10.1
		c-0.2,0-0.4,0.1-0.6,0.1c-0.2,0-0.4,0.1-0.6,0.1c-0.4,0-0.9,0.1-1.3,0.1c-5.9,0-10.9-4.3-11.8-10.1c-1-6.5,3.4-12.7,10-13.7
		c7.6-1.2,12.8-8.4,11.6-16C47.2,17.1,45.1,13.8,42.1,11.7 M36.1,10c-1.1,0-2.3,0.1-3.5,0.2c0.5,0,0.9-0.1,1.4-0.1
		c6.3,0,11.8,4.6,12.8,11C47.9,28.2,43.1,34.9,36,36c-7.1,1.1-11.9,7.8-10.8,14.9c1,6.4,6.5,11,12.8,11c0.5,0,0.9,0,1.4-0.1
		c0.2,0,0.4-0.1,0.7-0.1c0.2,0,0.4-0.1,0.7-0.1C54.5,59,63.9,45.9,61.7,31.9C59.6,19.1,48.6,10,36.1,10L36.1,10L36.1,10z"/>
</g>
<g>
	<defs>
		<path id="SVGID_1_" d="M61.7,31.9c2.2,14-7.1,27.1-20.9,29.6c-0.2,0-0.4,0.1-0.7,0.1s-0.4,0.1-0.7,0.1c-6.8,0.7-13.1-4-14.2-10.9
			C24.1,43.8,28.9,37.1,36,36s11.9-7.8,10.8-14.9c-1.1-6.9-7.4-11.6-14.2-10.9C46.5,8.4,59.5,18,61.7,31.9z"/>
	</defs>
	<clipPath id="SVGID_00000068679771603579444870000005962410786329136259_">
		<use xlink:href="#SVGID_1_"  style="overflow:visible;"/>
	</clipPath>
	<g style="clip-path:url(#SVGID_00000068679771603579444870000005962410786329136259_);">
		<g>
			<path class="st8" d="M36,61.5c-3.8,0-7.5-0.8-11-2.5c-0.2-0.1-0.4-0.2-0.6-0.3c-0.2-0.1-0.4-0.2-0.6-0.3
				c-5.8-3.3-7.9-10.6-4.9-16.5c2.1-4.2,6.4-6.8,11.1-6.8c2,0,3.9,0.5,5.7,1.4c1.9,1,4,1.5,6.1,1.5c5.1,0,9.7-2.8,12-7.4
				c2.2-4.3,1.9-9.2-0.5-13.1c8,7.6,10.5,19.9,5.3,30.1C54.3,56.2,45.6,61.5,36,61.5L36,61.5z"/>
			<path class="st0" d="M55.2,19.9c2.1,2.5,3.7,5.4,4.7,8.6c2,6.3,1.4,12.9-1.6,18.8C54,55.8,45.4,61,36,61c-3.7,0-7.4-0.8-10.8-2.5
				c-0.2-0.1-0.4-0.2-0.6-0.3s-0.4-0.2-0.5-0.3c-5.5-3.2-7.6-10.1-4.7-15.8c2.1-4,6.2-6.6,10.7-6.6c1.9,0,3.7,0.4,5.4,1.3
				c2,1,4.1,1.5,6.3,1.5c5.3,0,10.1-2.9,12.5-7.6C56.1,27.3,56.3,23.4,55.2,19.9 M48.4,13.2c6,3.4,8.3,11,5.1,17.2
				c-2.3,4.5-6.9,7.1-11.6,7.1c-2,0-4-0.5-5.9-1.4c-1.9-1-3.9-1.4-5.9-1.4c-4.7,0-9.3,2.6-11.6,7.1c-3.2,6.2-0.9,13.7,5.1,17.2
				c0.2,0.1,0.4,0.2,0.6,0.3c0.2,0.1,0.4,0.2,0.6,0.3C28.4,61.2,32.2,62,36,62c9.5,0,18.6-5.2,23.2-14.2
				C65.6,35.2,60.7,19.8,48.4,13.2L48.4,13.2L48.4,13.2z"/>
		</g>
		<g>
			<path class="st9" d="M36,61.5c-9.4,0-18-5.1-22.4-13.3c-0.1-0.2-0.2-0.4-0.3-0.6c-0.1-0.2-0.2-0.4-0.3-0.6
				c-2.7-6.1-0.2-13.2,5.7-16.2c1.8-0.9,3.7-1.4,5.7-1.4c4.7,0,9,2.6,11.1,6.8c2.3,4.5,6.9,7.4,12,7.4c2.1,0,4.2-0.5,6.1-1.5
				c4.3-2.2,6.9-6.4,7.3-10.9c2,10.8-3.2,22.3-13.5,27.5C43.9,60.6,40.1,61.5,36,61.5L36,61.5z"/>
			<path class="st0" d="M24.4,29.9c4.5,0,8.6,2.5,10.7,6.6c2.4,4.7,7.2,7.6,12.5,7.6c2.2,0,4.4-0.5,6.3-1.5c3.5-1.8,5.9-4.8,7-8.3
				c0.2,3.3-0.2,6.6-1.3,9.7c-2.1,6.2-6.5,11.3-12.3,14.3C43.8,60.1,40,61,36,61c-9.2,0-17.6-5-22-13.1c-0.1-0.2-0.2-0.4-0.3-0.5
				c-0.1-0.2-0.2-0.4-0.3-0.6C10.9,41,13.3,34.1,19,31.2C20.7,30.3,22.5,29.9,24.4,29.9 M59.4,24.8c2.8,6.3,0.2,13.7-6,16.9
				c-1.9,1-3.9,1.4-5.9,1.4c-4.7,0-9.3-2.6-11.6-7.1c-2.3-4.5-6.9-7.1-11.6-7.1c-2,0-4,0.5-5.9,1.4c-6.2,3.2-8.8,10.6-6,16.9
				c0.1,0.2,0.2,0.4,0.3,0.6c0.1,0.2,0.2,0.4,0.3,0.6C17.8,57,26.8,62,36,62c4,0,8-0.9,11.8-2.8C60.4,52.7,65.5,37.5,59.4,24.8
				L59.4,24.8L59.4,24.8z"/>
		</g>
		<g>
			<path class="st10" d="M36,61.5c-1.3,0-2.7-0.1-4-0.3C18.5,59,8.9,46.2,10.7,32.7c0-0.2,0.1-0.4,0.1-0.7c0-0.2,0.1-0.4,0.1-0.6
				c1.2-5.7,6.3-9.9,12.2-9.9c0.7,0,1.3,0.1,2,0.2c6.8,1.1,11.5,7.5,10.4,14.3c-0.6,3.6,0.3,7.1,2.4,10s5.2,4.8,8.8,5.4
				c0.7,0.1,1.4,0.2,2.1,0.2c4,0,7.8-1.8,10.3-4.8C55,55.6,46.1,61.5,36,61.5L36,61.5z"/>
			<path class="st0" d="M23.1,22L23.1,22c0.6,0,1.3,0.1,1.9,0.1c3.2,0.5,5.9,2.2,7.8,4.8s2.6,5.8,2.1,8.9c-0.6,3.7,0.3,7.4,2.5,10.4
				c2.2,3,5.4,5,9.1,5.6c0.7,0.1,1.5,0.2,2.2,0.2c3.1,0,6-1,8.4-2.8C52.8,56.4,44.9,61,36,61c-1.3,0-2.6-0.1-3.9-0.3
				c-6.5-1-12.2-4.5-16.1-9.8c-3.9-5.3-5.6-11.7-4.7-18.2c0-0.2,0-0.4,0.1-0.6c0-0.2,0.1-0.4,0.1-0.6C12.6,26,17.5,22,23.1,22
				 M23.1,21c-6.1,0-11.4,4.3-12.7,10.3c0,0.2-0.1,0.4-0.1,0.7s-0.1,0.4-0.1,0.7C8.4,46.5,18,59.5,31.9,61.7
				c1.4,0.2,2.7,0.3,4.1,0.3c12.3,0,23.2-8.8,25.5-21.3C60.3,46.8,54.9,51,48.9,51c-0.7,0-1.4-0.1-2.1-0.2
				C39.7,49.7,34.9,43.1,36,36c1.1-7.1-3.7-13.7-10.8-14.9C24.5,21,23.8,21,23.1,21L23.1,21L23.1,21z M61.5,40.7L61.5,40.7z"/>
		</g>
		<g>
			<path class="st11" d="M36,61.5c-6.8,0-13.2-2.7-18-7.5c-9.7-9.7-9.9-25.7-0.5-35.6c0.2-0.2,0.3-0.3,0.5-0.5
				c0.2-0.2,0.3-0.3,0.5-0.4c2.3-2.1,5.3-3.2,8.4-3.2c3.3,0,6.5,1.3,8.8,3.7c2.4,2.4,3.7,5.5,3.7,8.8s-1.3,6.5-3.7,8.8
				c-2.5,2.5-4,5.9-4,9.5c0,3.6,1.4,7,4,9.5c2.5,2.5,5.9,4,9.5,4c1.1,0,2.1-0.1,3.1-0.4C44.6,60.4,40.4,61.5,36,61.5z"/>
			<path class="st0" d="M26.8,14.8L26.8,14.8c3.2,0,6.2,1.2,8.5,3.5c2.3,2.3,3.5,5.3,3.5,8.5c0,3.2-1.2,6.2-3.5,8.5
				c-2.6,2.6-4.1,6.2-4.1,9.9c0,3.7,1.5,7.3,4.1,9.9c2.6,2.6,6.2,4.1,9.9,4.1c0.1,0,0.1,0,0.2,0C42.4,60.4,39.2,61,36,61
				c-6.7,0-12.9-2.6-17.7-7.3C13.7,49,11.1,42.9,11,36.3c-0.1-6.6,2.4-12.8,6.9-17.5c0.1-0.2,0.3-0.3,0.4-0.5
				c0.1-0.1,0.3-0.3,0.5-0.4C21,15.9,23.8,14.8,26.8,14.8 M26.8,13.8c-3.1,0-6.2,1.1-8.7,3.3c-0.2,0.1-0.3,0.3-0.5,0.5
				c-0.2,0.2-0.3,0.3-0.5,0.5c-9.7,10.2-9.5,26.3,0.5,36.3C22.7,59.5,29.3,62,36,62c6.4,0,12.9-2.4,17.9-7.2
				c-2.5,2.2-5.6,3.3-8.7,3.3c-3.3,0-6.6-1.3-9.2-3.8c-5.1-5.1-5.1-13.3,0-18.4c5.1-5.1,5.1-13.3,0-18.4
				C33.5,15.1,30.1,13.8,26.8,13.8L26.8,13.8L26.8,13.8z M53.9,54.8L53.9,54.8z"/>
		</g>
	</g>
</g>
<path class="st0" d="M36,11c4,0,7.8,0.9,11.3,2.7c5.9,3,10.4,8.2,12.4,14.5c2.1,6.3,1.5,13.1-1.5,19.1C54,55.8,45.4,61,36,61
	c-4,0-7.8-0.9-11.3-2.7c-5.9-3-10.4-8.2-12.4-14.5c-2.1-6.3-1.5-13.1,1.5-19.1C18,16.2,26.6,11,36,11 M36,10
	c-9.5,0-18.6,5.2-23.2,14.2c-6.5,12.8-1.4,28.4,11.4,35C28,61.1,32,62,36,62c9.5,0,18.6-5.2,23.2-14.2c6.5-12.8,1.4-28.4-11.4-35
	C44,10.9,40,10,36,10C36,10,36,10,36,10z"/>
<circle class="st0" cx="36" cy="36" r="10"/>
</svg>
