<?xml version="1.0" standalone="no"?>
<!DOCTYPE svg PUBLIC "-//W3C//DTD SVG 20010904//EN" "http://www.w3.org/TR/2001/REC-SVG-20010904/DTD/svg10.dtd">
<svg version="1.0" xmlns="http://www.w3.org/2000/svg" width="700.000000pt" height="700.000000pt" viewBox="0 0 700.000000 700.000000" preserveAspectRatio="xMidYMid meet">
	<metadata>
		Created by potrace 1.14, written by Peter Selinger 2001-2017
	</metadata>
	<g transform="translate(0.000000,700.000000) scale(0.100000,-0.100000)" fill="#000000" stroke="none">
		<path d="M3330 6414 c-663 -47 -1256 -291 -1751 -721 -467 -404 -805 -981
-932 -1588 -46 -218 -60 -363 -60 -605 0 -312 35 -561 120 -840 320 -1058
1209 -1845 2298 -2034 246 -42 589 -52 831 -22 660 79 1257 368 1724 836 449
449 731 1011 827 1650 22 147 25 644 5 790 -112 791 -517 1483 -1145 1954
-409 306 -873 493 -1391 561 -118 15 -422 26 -526 19z m1572 -717 c327 -126
469 -490 315 -807 -47 -96 -161 -209 -258 -255 -130 -61 -246 -77 -374 -50
-223 47 -404 226 -451 444 -63 300 114 595 411 683 92 27 267 20 357 -15z
m699 -1003 c208 -61 370 -236 414 -449 19 -88 18 -142 0 -230 -29 -137 -104
-259 -208 -338 -241 -183 -568 -164 -776 44 -228 228 -226 597 6 825 69 68
174 127 265 150 77 18 233 17 299 -2z m-45 -1255 c116 -21 262 -107 340 -199
74 -88 134 -254 134 -370 0 -141 -72 -309 -175 -412 -111 -112 -244 -168 -396
-168 -115 0 -177 14 -276 61 -330 157 -426 600 -193 883 140 169 349 245 566
205z m-3095 -1035 c146 -43 288 -161 353 -294 40 -82 66 -186 66 -265 0 -234
-171 -469 -398 -547 -94 -32 -257 -32 -357 -1 -279 88 -453 385 -391 666 53
236 237 415 469 457 67 12 189 4 258 -16z m2420 -3 c231 -73 400 -304 400
-551 0 -105 -13 -162 -57 -257 -60 -126 -188 -243 -321 -293 -278 -104 -593
23 -722 292 -50 105 -66 184 -58 296 17 259 197 470 449 527 83 19 223 13 309
-14z m-1191 -395 c171 -59 309 -200 363 -371 31 -100 30 -260 -2 -363 -57
-179 -218 -331 -402 -378 -77 -20 -204 -22 -279 -5 -189 44 -353 191 -416 373
-115 329 81 687 419 764 90 20 226 12 317 -20z" />
	</g>
</svg>
