<?xml version="1.0" standalone="no"?>
<!DOCTYPE svg PUBLIC "-//W3C//DTD SVG 20010904//EN"
 "http://www.w3.org/TR/2001/REC-SVG-20010904/DTD/svg10.dtd">
<svg version="1.0" xmlns="http://www.w3.org/2000/svg"
 width="700.000000pt" height="700.000000pt" viewBox="0 0 700.000000 700.000000"
 preserveAspectRatio="xMidYMid meet">
<metadata>
Created by potrace 1.14, written by Peter Selinger 2001-2017
</metadata>
<g transform="translate(0.000000,700.000000) scale(0.100000,-0.100000)"
fill="#000000" stroke="none">
<path d="M3225 6015 c-462 -53 -885 -223 -1260 -504 -113 -85 -354 -320 -439
-428 -289 -369 -463 -775 -533 -1243 -21 -144 -24 -510 -4 -650 63 -457 235
-873 509 -1234 105 -138 333 -364 472 -468 776 -580 1779 -678 2637 -259 263
129 467 275 679 486 405 404 644 891 726 1480 17 118 16 493 -1 615 -77 564
-312 1052 -696 1449 -389 402 -894 661 -1455 746 -147 22 -484 28 -635 10z
m458 -95 c112 -9 123 -12 205 -55 286 -148 514 -417 611 -720 46 -141 62 -245
62 -395 0 -204 -34 -359 -117 -539 -35 -76 -104 -191 -115 -191 -3 0 -26 29
-52 64 -58 79 -171 185 -247 232 l-57 35 -7 107 c-29 452 -251 837 -623 1079
-197 129 -461 213 -667 213 -89 0 -79 8 82 60 301 97 622 135 925 110z m579
-114 c307 -101 590 -261 834 -473 46 -39 72 -73 102 -131 282 -540 125 -1217
-367 -1588 -82 -62 -276 -166 -333 -180 l-28 -6 0 75 c0 99 -23 225 -60 330
l-30 85 47 68 c106 157 187 365 219 564 23 135 14 358 -19 500 -72 307 -237
570 -482 768 -22 18 -34 32 -27 32 6 0 72 -20 144 -44z m-1397 -177 c545 -110
955 -578 1001 -1142 l7 -87 -58 20 c-94 32 -210 50 -330 50 l-113 0 -43 58
c-152 203 -373 363 -622 451 -160 56 -272 75 -457 75 -181 0 -300 -19 -442
-70 -84 -30 -235 -104 -293 -144 -66 -44 -69 -45 -49 -14 51 82 192 260 272
345 185 196 494 427 611 459 125 33 346 33 516 -1z m2665 -795 c127 -192 237
-431 305 -666 43 -147 52 -231 35 -324 -84 -456 -423 -838 -868 -978 -141 -44
-258 -59 -422 -52 -128 5 -298 31 -330 51 -5 3 11 34 36 67 59 81 117 202 146
305 l23 82 75 26 c321 113 608 369 758 677 93 190 130 335 139 543 6 151 -5
268 -38 397 -10 42 -19 80 -19 84 0 13 89 -106 160 -212z m-3010 97 c279 -64
525 -212 697 -420 l53 -65 -68 -21 c-97 -31 -205 -88 -294 -155 l-77 -58 -48
14 c-229 71 -497 80 -728 23 -428 -105 -788 -418 -946 -822 l-27 -71 -8 39
c-9 50 3 302 21 430 31 225 106 488 185 651 34 70 52 93 118 152 201 177 421
281 677 322 94 14 346 4 445 -19z m108 -771 c51 -11 99 -23 107 -27 11 -7 5
-22 -31 -73 -72 -103 -123 -214 -154 -336 -10 -40 -12 -42 -88 -69 -374 -131
-686 -446 -821 -828 -88 -252 -102 -523 -37 -779 l23 -91 -29 34 c-46 56 -173
248 -223 339 -100 183 -187 409 -236 612 -22 95 -22 98 -6 195 94 563 549 984
1132 1047 76 8 270 -5 363 -24z m3299 -707 c-3 -115 -13 -253 -22 -308 -31
-203 -106 -459 -182 -625 -67 -146 -330 -336 -581 -420 -238 -80 -528 -81
-774 -4 -206 65 -355 157 -520 325 -65 65 -118 122 -118 127 0 5 26 16 58 26
93 28 232 101 307 161 48 38 76 55 90 52 11 -3 65 -17 120 -32 132 -36 397
-46 542 -21 433 75 800 346 991 732 27 54 55 117 62 139 30 96 33 76 27 -152z
m-3397 43 c0 -98 23 -224 60 -329 l30 -85 -47 -68 c-64 -96 -147 -272 -178
-379 -80 -276 -69 -599 28 -855 85 -225 240 -444 411 -580 31 -25 52 -46 47
-48 -12 -4 -192 54 -291 95 -250 103 -489 249 -688 421 -73 64 -122 150 -177
315 -62 186 -78 379 -49 576 63 430 348 801 751 977 43 18 84 34 91 34 8 0 12
-21 12 -74z m296 -692 c35 -34 96 -83 136 -111 l73 -49 6 -115 c7 -136 21
-212 61 -339 129 -405 448 -730 853 -868 114 -39 223 -61 350 -70 l100 -7 -60
-24 c-100 -38 -291 -90 -409 -111 -317 -56 -681 -53 -799 6 -352 178 -607 514
-684 901 -24 121 -23 357 1 473 34 163 93 311 176 438 l41 63 46 -63 c25 -35
74 -90 109 -124z m396 -232 c95 -30 217 -45 317 -40 l88 4 39 -54 c93 -128
268 -282 415 -365 430 -240 981 -226 1386 35 37 24 74 48 82 52 7 5 -10 -26
-38 -68 -186 -274 -456 -534 -737 -705 -93 -57 -105 -62 -204 -77 -249 -38
-516 8 -754 129 -354 180 -607 528 -671 919 -20 121 -20 202 -1 195 7 -3 43
-14 78 -25z"/>
</g>
</svg>
